<?xml version="1.0" encoding="utf-8"?>
<!-- Generator: Adobe Illustrator 19.1.0, SVG Export Plug-In . SVG Version: 6.00 Build 0)  -->
<svg version="1.1" id="Laag_1" xmlns="http://www.w3.org/2000/svg" xmlns:xlink="http://www.w3.org/1999/xlink" x="0px" y="0px"
	 viewBox="-143 145 512 512" style="enable-background:new -143 145 512 512;" xml:space="preserve">
<style type="text/css">
	.st0{fill:#19C589;}
</style>
<g>
	<path class="st0" d="M324.2,440.9c-4.6-27.4-18-51.6-36.9-69.9c2.1-7.2,3.6-14.6,4.4-22.1c3.7,3.5,8.7,5.7,14.2,5.7h16.4
		c11.3,0,20.5-9.2,20.5-20.4c0-11.3-9.2-20.4-20.5-20.4h-16.4c-5.6,0-10.7,2.3-14.4,5.9c-3-24.5-13.1-46.9-28.2-65.2
		c0.1,0,0.2,0,0.3,0c5.2,0,10.4-2,14.4-5.9l11.6-11.4c8.1-7.9,8.2-20.9,0.2-28.9c-7.9-8-20.9-8.1-29-0.2l-11.6,11.4
		c-4.3,4.2-6.3,9.7-6.1,15.3c-18.9-14.9-42.1-24.7-67.5-27.4c3.9-3.7,6.4-9,6.4-14.8v-16.2c0-11.3-9.2-20.4-20.5-20.4
		s-20.5,9.2-20.5,20.4v16.1c0,5.8,2.5,11.1,6.4,14.8c-25.1,2.7-48.4,12.4-67.5,27.3c0.2-5.5-1.9-11-6.1-15.1l-11.6-11.4
		c-8.1-7.9-21-7.8-29,0.2c-7.9,8-7.8,21,0.2,28.9L45,248.6c4,3.9,9.2,5.9,14.4,5.9h0.1c-9.4,11.4-16.8,24.5-21.8,38.8
		c-70.3,10.3-110.4,69.2-109.8,127c-36.8,21.6-59.9,61.1-59.9,104.5C-132,591.6-77.4,646-10.4,646h246.7
		c67.1,0,121.6-54.4,121.6-121.2C358,493.5,345.8,463.3,324.2,440.9L324.2,440.9z M161.4,247.5c49.6,0,89.9,39.4,89.9,87.9
		c0,3.7-0.3,7.4-0.7,11c-15.9-7-33.4-10.9-51.9-10.9c-14.3,0-28.6,2.4-42,7.1c-18.5-24.5-45.2-41.4-75.1-47.7
		C96.8,266.2,127.3,247.5,161.4,247.5z M236.4,605H-10.4c-44.4,0-80.5-36-80.5-80.2c0-31.9,19-60.8,48.4-73.6
		c8.4-3.6,13.6-12.4,12.2-21.4c-6.6-44.1,29.1-95.7,85.4-96.6c31.6-0.5,60.5,17.2,75.6,44.9c5.4,9.9,17.8,13.6,27.7,8.4
		c12.5-6.6,26-9.9,40.2-9.9c44,0,80.8,32.8,85.5,76.4c0.5,4.9,2.9,9.5,6.5,12.9c16.5,15.2,26,36.7,26,59
		C316.8,569,280.7,605,236.4,605L236.4,605z"/>
</g>
</svg>
