<?xml version="1.0" encoding="utf-8"?>
<!-- Generator: Adobe Illustrator 19.1.0, SVG Export Plug-In . SVG Version: 6.00 Build 0)  -->
<svg version="1.1" id="Laag_1" xmlns="http://www.w3.org/2000/svg" xmlns:xlink="http://www.w3.org/1999/xlink" x="0px" y="0px"
	 viewBox="-143 145 512 512" style="enable-background:new -143 145 512 512;" xml:space="preserve">
<style type="text/css">
	.st0{fill:#19C589;}
</style>
<g>
	<path class="st0" d="M357.4,512.9c-9.1-43.7-40.2-78.1-79.7-90.1c-7.2-59.4-54.8-105.4-112.3-105.8
		c-17.6-42.8-57.7-72.8-104.2-72.8C3.6,244.2-44.1,290-51.6,350c-39.6,12-70.7,46.5-79.8,90.2c-2.3,11.2,0.5,42.5,35.3,44.9h77.7
		c-4.1,8.7-7.3,18.1-9.3,27.9c-2.3,11.2,0.5,42.5,35.3,44.9h314.6C356.6,556.1,359.7,524.1,357.4,512.9L357.4,512.9z M-29.4,386.8
		c10.1-1.4,17.6-10.9,17.6-21.1c0-44.4,32.7-80.6,73-80.6c26.9,0,50.4,16.2,63.1,39.9c-38.2,15.6-66.6,52.7-72.2,97.8
		c-14.4,4.4-27.7,11.7-39.2,21.4H-90.4C-82.3,413.6-58.3,390.7-29.4,386.8L-29.4,386.8z M13.3,516.9c8.1-30.6,32.1-53.4,61-57.4
		c10.1-1.4,17.6-10.9,17.6-21.1c0-44.4,32.7-80.6,73-80.6c40.2,0,73,36.2,73,79.7c0,0.4-0.1,1.4-0.1,1.8c0,10.2,7.5,18.9,17.7,20.2
		c28.9,3.9,52.9,26.7,61,57.4H13.3L13.3,516.9z"/>
</g>
</svg>
