<?xml version="1.0" encoding="utf-8"?>
<!-- Generator: Adobe Illustrator 19.1.0, SVG Export Plug-In . SVG Version: 6.00 Build 0)  -->
<svg version="1.1" id="Laag_1" xmlns="http://www.w3.org/2000/svg" xmlns:xlink="http://www.w3.org/1999/xlink" x="0px" y="0px"
	 viewBox="-143 145 512 512" style="enable-background:new -143 145 512 512;" xml:space="preserve">
<style type="text/css">
	.st0{fill:#19C589;}
</style>
<g>
	<path class="st0" d="M357.2,493.3c-11.8-52.7-52.3-93.8-103.3-106.9C246,315,185.8,259.3,113,259.3S-20,315-27.9,386.4
		c-51,13.1-91.5,54.3-103.3,106.9c-2.7,12-0.2,47.9,39.8,49.5h408.8C358.2,539.4,359.9,505.3,357.2,493.3z M-91.4,502.2
		c9.3-41.7,43.7-73.2,85.6-78.6c10.2-1.3,17.9-10,17.9-20.3c0-0.6,0-1.1,0-1.1C12.1,345.9,57.4,300,113,300s100.9,45.8,100.9,101.2
		c0,0.4-0.1,1.3-0.1,1.7c-0.1,10.4,7.5,19.2,17.9,20.6c41.9,5.3,76.3,36.9,85.6,78.2L-91.4,502.2L-91.4,502.2z"/>
</g>
</svg>
