<?xml version="1.0" encoding="utf-8"?>
<!-- Generator: Adobe Illustrator 19.1.0, SVG Export Plug-In . SVG Version: 6.00 Build 0)  -->
<svg version="1.1" id="Laag_1" xmlns="http://www.w3.org/2000/svg" xmlns:xlink="http://www.w3.org/1999/xlink" x="0px" y="0px"
	 viewBox="-143 145 512 512" style="enable-background:new -143 145 512 512;" xml:space="preserve">
<style type="text/css">
	.st0{fill:#19C589;}
</style>
<g>
	<g>
		<path class="st0" d="M337.6,444.4h-54.5c15.2-27.7,23.8-59.6,23.8-93.4c0-28.7-6.2-55.9-17.3-80.4c2.8-0.4,4.4-0.6,4.5-0.6
			c11.2-0.8,19.7-10.6,18.9-21.9c-0.8-11.3-10.8-19.8-21.9-18.9c-1.1,0.1-10.4,0.9-23.5,4.3c-35.6-47-92-77.5-155.4-77.5
			C5.7,156-81.2,242.2-82.4,348.7h-29.2c-11.3,0-20.4,9.1-20.4,20.4c0,11.3,9.1,20.4,20.4,20.4h32.9C-60.7,478.7,18,546,112.2,546
			c55.5,0,105.6-23.4,141.1-60.8h84.2c11.3,0,20.4-9.1,20.4-20.4C358,453.5,348.9,444.4,337.6,444.4L337.6,444.4z M234.6,444.4H69.2
			c-11.3,0-20.4,9.1-20.4,20.4s9.1,20.4,20.4,20.4h118.7c-22.4,12.7-48.2,20-75.7,20c-71.6,0-131.9-49.2-149-115.7h171.4
			c11.3,0,20.4-9.1,20.4-20.4s-9.1-20.4-20.4-20.4H-41.6c1.2-83.9,69.8-151.9,153.8-151.9c46.3,0,88,20.6,116.2,53.2
			c-10.7,6.4-21.2,14.8-30.4,25.8c-34.9-41.7-90.2-46.3-93-46.5c-11.1-0.9-21,7.6-21.9,18.9c-0.8,11.2,7.6,21,18.9,21.9
			c0.6,0,57,5.3,76.8,52.4c4,9.5,14.7,13,19.3,13c8,0,15.9-4.4,19.3-13c7.4-18.3,20.4-30.2,33.6-38.1c9.7,20.2,15.1,42.8,15.1,66.6
			C266.1,386.1,254.3,418.4,234.6,444.4L234.6,444.4z"/>
		<path class="st0" d="M160.7,605.2h-206c-11.3,0-20.4,9.1-20.4,20.4c0,11.3,9.1,20.4,20.4,20.4h206c11.3,0,20.4-9.1,20.4-20.4
			C181.1,614.3,172,605.2,160.7,605.2z"/>
	</g>
</g>
</svg>
