<?xml version="1.0" encoding="utf-8"?>
<!-- Generator: Adobe Illustrator 19.1.0, SVG Export Plug-In . SVG Version: 6.00 Build 0)  -->
<svg version="1.1" id="Laag_1" xmlns="http://www.w3.org/2000/svg" xmlns:xlink="http://www.w3.org/1999/xlink" x="0px" y="0px"
	 viewBox="-143 145 512 512" style="enable-background:new -143 145 512 512;" xml:space="preserve">
<style type="text/css">
	.st0{fill:#19C589;}
</style>
<g>
	<g>
		<path class="st0" d="M-12.9,508c-10.1-5.4-22.6-1.6-27.9,8.5l-17.6,32.9c-5.4,10-1.6,22.5,8.5,27.8c3.1,1.6,18.8,6.9,27.9-8.5
			l17.6-32.9C0.9,525.8-2.9,513.3-12.9,508z"/>
		<path class="st0" d="M124.1,508c-10.1-5.4-22.6-1.6-27.9,8.5l-17.6,32.9c-5.4,10-1.6,22.5,8.5,27.8c3.1,1.6,18.8,6.9,27.9-8.5
			l17.6-32.9C138,525.8,134.1,513.3,124.1,508z"/>
		<path class="st0" d="M261.1,508c-10.1-5.4-22.6-1.6-27.9,8.5l-17.6,32.9c-5.4,10-1.6,22.5,8.5,27.8c3.1,1.6,18.8,6.9,27.9-8.5
			l17.6-32.9C275,525.8,271.2,513.3,261.1,508z"/>
		<path class="st0" d="M189.3,574.7c-10.1-5.4-22.6-1.6-27.9,8.5L143.8,616c-5.4,10-1.6,22.5,8.5,27.8c3.1,1.6,18.8,6.9,27.9-8.5
			l17.6-32.8C203.2,592.4,199.4,580,189.3,574.7z"/>
		<path class="st0" d="M36.5,574.7c-10.1-5.4-22.6-1.6-27.9,8.5L-9,616c-5.4,10-1.6,22.5,8.5,27.8c3.1,1.6,18.8,6.9,27.9-8.5
			L45,602.5C50.4,592.4,46.5,580,36.5,574.7z"/>
		<path class="st0" d="M316,284.7c-4-23.1-15.5-44.3-32.9-60.5c-20.1-18.6-46.2-28.8-73.6-28.8c-16.4,0-32.2,3.6-46.7,10.5
			C137.2,174.7,98.5,156,57.5,156c-35.9,0-69.7,13.8-95.3,38.9c-22.4,22-36.2,50.6-39.6,81.4c-33.6,19-54.6,54.5-54.6,93.6
			c0,59.4,48.5,107.8,108.1,107.8h273.7c59.6,0,108.1-48.3,108.1-107.8C358,336.2,342.5,305,316,284.7L316,284.7z M249.9,436.4
			H-23.9c-36.8,0-66.7-29.8-66.7-66.5c0-26.9,16.1-51,41-61.4c7.6-3.2,12.6-10.5,12.7-18.7c0.8-51,43.1-92.6,94.3-92.6
			c33.4,0,64.6,17.9,81.5,46.6c3,5.1,8,8.7,13.8,9.8c5.8,1.2,11.8-0.2,16.5-3.8c11.6-8.7,25.5-13.4,40.1-13.4
			c34.6,0,63.8,26.9,66.5,61.3c0.5,6.5,4,12.4,9.6,15.8c19.5,12.3,31.1,33.3,31.1,56.2C316.6,406.6,286.6,436.4,249.9,436.4
			L249.9,436.4z"/>
	</g>
</g>
</svg>
