<?xml version="1.0" encoding="utf-8"?>
<!-- Generator: Adobe Illustrator 19.1.0, SVG Export Plug-In . SVG Version: 6.00 Build 0)  -->
<svg version="1.1" id="Laag_1" xmlns="http://www.w3.org/2000/svg" xmlns:xlink="http://www.w3.org/1999/xlink" x="0px" y="0px"
	 viewBox="-143 145 512 512" style="enable-background:new -143 145 512 512;" xml:space="preserve">
<style type="text/css">
	.st0{fill:#19C589;}
</style>
<g>
	<g>
		<path class="st0" d="M-22.7,442.2c-11.3,0-20.4,9.1-20.4,20.4v32.2c0,11.3,9.1,20.4,20.4,20.4s20.4-9.1,20.4-20.4v-32.2
			C-2.3,451.3-11.5,442.2-22.7,442.2z"/>
		<path class="st0" d="M113,442.2c-11.3,0-20.4,9.1-20.4,20.4v32.2c0,11.3,9.1,20.4,20.4,20.4s20.4-9.1,20.4-20.4v-32.2
			C133.4,451.3,124.3,442.2,113,442.2z"/>
		<path class="st0" d="M248.7,442.2c-11.3,0-20.4,9.1-20.4,20.4v32.2c0,11.3,9.1,20.4,20.4,20.4s20.4-9.1,20.4-20.4v-32.2
			C269.1,451.3,260,442.2,248.7,442.2z"/>
		<path class="st0" d="M45.1,537.6c-11.3,0-20.4,9.1-20.4,20.4v32.2c0,11.3,9.1,20.4,20.4,20.4c11.3,0,20.4-9.1,20.4-20.4V558
			C65.5,546.7,56.4,537.6,45.1,537.6z"/>
		<path class="st0" d="M180.9,537.6c-11.3,0-20.4,9.1-20.4,20.4v32.2c0,11.3,9.1,20.4,20.4,20.4s20.4-9.1,20.4-20.4V558
			C201.3,546.7,192.1,537.6,180.9,537.6z"/>
		<path class="st0" d="M324.2,380.6c-4.8-75.7-59.1-133.9-126.4-133.9c-13.1,0-25.9,2.3-38.2,6.7c-23.6-38.7-62-62-104.3-62
			c-70,0-126.9,64.9-126.9,144.6c0,6.2,0.4,12.5,1.1,18.9c-37.7,25.9-61.5,72.9-61.5,123.9c0,11.3,9.1,20.4,20.4,20.4
			s20.4-9.1,20.4-20.4c0-41.6,20.6-79,52.5-95.4c8.2-4.2,12.5-13.3,10.7-22.3c-1.8-8.6-2.7-17-2.7-25.1c0-57.2,38.6-103.7,86-103.7
			c32.1,0,61.3,21.5,76.3,56.1c2.3,5.4,6.8,9.5,12.4,11.3c5.5,1.8,11.6,1.2,16.6-1.7c11.8-6.8,24.3-10.3,37.1-10.3
			c46.3,0,84.9,45.5,85.9,101.4c0.1,4.9,2,9.7,5.3,13.3c17.9,19.7,28.2,47.6,28.2,76.6c0,11.3,9.1,20.4,20.4,20.4
			s20.4-9.1,20.4-20.4C358,442,346,407.4,324.2,380.6L324.2,380.6z"/>
	</g>
</g>
</svg>
