<?xml version="1.0" encoding="utf-8"?>
<!-- Generator: Adobe Illustrator 19.1.0, SVG Export Plug-In . SVG Version: 6.00 Build 0)  -->
<svg version="1.1" id="Laag_1" xmlns="http://www.w3.org/2000/svg" xmlns:xlink="http://www.w3.org/1999/xlink" x="0px" y="0px"
	 viewBox="-143 145 512 512" style="enable-background:new -143 145 512 512;" xml:space="preserve">
<style type="text/css">
	.st0{fill:#19C589;}
</style>
<g>
	<path class="st0" d="M301.8,401l50.2-50.2c8-8,8-20.9,0-28.9s-20.9-8-28.9,0l-58.7,58.7h-85c-1.3-4.2-3-8.3-5-12.1l60.1-60.1h83
		c11.3,0,20.4-9.1,20.4-20.4s-9.1-20.4-20.4-20.4h-71v-71c0-11.3-9.1-20.4-20.4-20.4s-20.4,9.1-20.4,20.4v83l-60.1,60.1
		c-3.8-2-7.9-3.7-12.1-5v-85l58.7-58.7c8-8,8-20.9,0-28.9s-20.9-8-28.9,0L113,212.2L62.8,162c-8-8-20.9-8-28.9,0s-8,20.9,0,28.9
		l58.7,58.7v85c-4.2,1.3-8.3,3-12.1,5l-60.1-60.1v-83c0-11.3-9.1-20.4-20.4-20.4c-11.3,0-20.4,9.1-20.4,20.4v71h-71
		c-11.3,0-20.4,9.1-20.4,20.4c0,11.3,9.1,20.4,20.4,20.4h83l60.1,60.1c-2,3.8-3.7,7.9-5,12.1h-85L-97,321.8c-8-8-20.9-8-28.9,0
		s-8,20.9,0,28.9l50.1,50.3l-50.2,50.2c-8,8-8,20.9,0,28.9s20.9,8,28.9,0l58.7-58.7h85c1.3,4.2,3,8.3,5,12.1l-60.1,60.1h-83
		c-11.3,0-20.4,9.1-20.4,20.4s9.1,20.4,20.4,20.4h71v71c0,11.3,9.1,20.4,20.4,20.4c11.3,0,20.4-9.1,20.4-20.4v-83l60.1-60.1
		c3.8,2,7.9,3.7,12.1,5v85L33.8,611c-8,8-8,20.9,0,28.9s20.9,8,28.9,0l50.2-50.2l50.2,50.2c8,8,20.9,8,28.9,0s8-20.9,0-28.9
		l-58.7-58.7v-85c4.2-1.3,8.3-3,12.1-5l60.1,60.1v83c0,11.3,9.1,20.4,20.4,20.4s20.4-9.1,20.4-20.4v-71h71
		c11.3,0,20.4-9.1,20.4-20.4s-9.1-20.4-20.4-20.4h-83l-60.1-60.1c2-3.8,3.7-7.9,5-12.1h85l58.7,58.7c8,8,20.9,8,28.9,0
		s8-20.9,0-28.9L301.8,401L301.8,401z M84.5,401c0-15.7,12.8-28.5,28.5-28.5s28.5,12.8,28.5,28.5s-12.8,28.5-28.5,28.5
		S84.5,416.7,84.5,401L84.5,401z"/>
</g>
</svg>
