<?xml version="1.0" encoding="utf-8"?>
<!-- Generator: Adobe Illustrator 19.1.0, SVG Export Plug-In . SVG Version: 6.00 Build 0)  -->
<svg version="1.1" id="Laag_1" xmlns="http://www.w3.org/2000/svg" xmlns:xlink="http://www.w3.org/1999/xlink" x="0px" y="0px"
	 viewBox="-143 145 512 512" style="enable-background:new -143 145 512 512;" xml:space="preserve">
<style type="text/css">
	.st0{fill:#19C589;}
</style>
<g>
	<g>
		<path class="st0" d="M323.4,336.6c0.3-5.6,0.3-11.1-0.1-16.7c-5-70.8-67.2-124.3-138.7-119.4c-7.9,0.5-15.6,1.8-23.2,3.7
			c-54-63.5-123.1-50.2-152-38.2c-31.3,13.1-92,56.3-76.3,146.5C-83.5,322-132,356.1-132,424.1c0,11.3,9.3,20.5,20.7,20.5
			c11.4,0,20.7-9.2,20.7-20.5c0-36.3,22-68.3,56.1-81.6c10.6-4.1,15.8-15.9,11.7-26.4c-17.2-44.4,4-93.7,48.2-112.2
			C65.6,187,113,202.2,135.5,239c5.2,8.6,16,12.1,25.4,8.4c8.5-3.3,17.4-5.4,26.6-6c48.7-3.4,91.1,33.1,94.5,81.3
			c0.4,6.2,0.2,12.5-0.7,18.6c-1,6.7,1.5,13.4,6.5,18c18.3,16.6,28.8,40.2,28.8,64.7c0,11.3,9.3,20.5,20.7,20.5
			c11.4,0,20.7-9.2,20.7-20.5C358,391.6,345.5,360.3,323.4,336.6L323.4,336.6z"/>
		<path class="st0" d="M62.8,491.4l-33-11.4L58,436.6c6.2-9.5,3.5-22.1-6-28.3c-9.5-6.1-22.1-3.5-28.2,6l-42.5,65.4
			c-3.4,5.3-4.2,11.8-2.2,17.8s6.7,10.6,12.7,12.7L29,523l-39.3,94.8c-4.3,10.4,0.6,22.4,11,26.7c2.6,1.1,18.3,6.3,26.7-11L75,518.6
			c2.2-5.2,2.1-11.1-0.2-16.2C72.5,497.1,68.2,493.2,62.8,491.4z"/>
		<path class="st0" d="M234.2,491.4l-33-11.4l28.2-43.4c6.2-9.5,3.5-22.1-6-28.3c-9.5-6.1-22.1-3.5-28.2,6l-42.5,65.4
			c-3.4,5.3-4.2,11.8-2.2,17.8s6.7,10.6,12.7,12.7l37.3,12.8l-39.3,94.8c-4.3,10.4,0.6,22.4,11,26.7c2.6,1.1,18.3,6.3,26.7-11
			l47.6-114.9c2.2-5.2,2.1-11.1-0.2-16.2C243.9,497.1,239.6,493.2,234.2,491.4z"/>
	</g>
</g>
</svg>
