<?xml version="1.0" encoding="utf-8"?>
<!-- Generator: Adobe Illustrator 19.1.0, SVG Export Plug-In . SVG Version: 6.00 Build 0)  -->
<svg version="1.1" id="Laag_1" xmlns="http://www.w3.org/2000/svg" xmlns:xlink="http://www.w3.org/1999/xlink" x="0px" y="0px"
	 viewBox="-143 145 512 512" style="enable-background:new -143 145 512 512;" xml:space="preserve">
<style type="text/css">
	.st0{fill:#19C589;}
</style>
<g>
	<g>
		<path class="st0" d="M337.6,380.6h-25.4h-23.1c-11.3,0-20.4,9.1-20.4,20.4s9.1,20.4,20.4,20.4h23.1h25.4
			c11.3,0,20.4-9.1,20.4-20.4S348.9,380.6,337.6,380.6z"/>
		<path class="st0" d="M113,260.7c-77.4,0-140.4,63-140.4,140.4s63,140.4,140.4,140.4s140.4-63,140.4-140.4
			C253.4,323.6,190.4,260.7,113,260.7L113,260.7z M113,500.5c-54.9,0-99.5-44.6-99.5-99.5s44.6-99.5,99.5-99.5s99.5,44.6,99.5,99.5
			S167.9,500.5,113,500.5z"/>
		<path class="st0" d="M-63.1,380.6h-48.5c-11.3,0-20.4,9.1-20.4,20.4s9.1,20.4,20.4,20.4h48.5c11.3,0,20.4-9.1,20.4-20.4
			S-51.8,380.6-63.1,380.6z"/>
		<path class="st0" d="M113,245.3c11.3,0,20.4-9.1,20.4-20.4v-48.5c0-11.3-9.1-20.4-20.4-20.4c-11.3,0-20.4,9.1-20.4,20.4v48.5
			C92.6,236.2,101.7,245.3,113,245.3z"/>
		<path class="st0" d="M113,556.7c-11.3,0-20.4,9.1-20.4,20.4v48.4c0,11.3,9.1,20.4,20.4,20.4s20.4-9.1,20.4-20.4v-48.4
			C133.4,565.9,124.3,556.7,113,556.7z"/>
		<path class="st0" d="M252,511.1c-8-8-20.9-8-28.9,0c-8,8-8,20.9,0,28.9l16.3,16.3c8,8,20.9,8,28.9,0s8-20.9,0-28.9L252,511.1z"/>
		<path class="st0" d="M-26,290.9c8,8,20.9,8,28.9,0s8-20.9,0-28.9l-16.3-16.3c-8-8-20.9-8-28.9,0s-8,20.9,0,28.9L-26,290.9
			L-26,290.9z"/>
		<path class="st0" d="M252,290.9l16.3-16.3c8-8,8-20.9,0-28.9s-20.9-8-28.9,0L223.1,262c-8,8-8,20.9,0,28.9S244,298.9,252,290.9
			L252,290.9z"/>
		<path class="st0" d="M-26,511.1l-16.3,16.3c-8,8-8,20.9,0,28.9s20.9,8,28.9,0L2.9,540c8-8,8-20.9,0-28.9
			C-5.1,503.1-18,503.1-26,511.1z"/>
	</g>
</g>
</svg>
