<?xml version="1.0" encoding="utf-8"?>
<!-- Generator: Adobe Illustrator 19.1.0, SVG Export Plug-In . SVG Version: 6.00 Build 0)  -->
<svg version="1.1" id="Capa_1" xmlns="http://www.w3.org/2000/svg" xmlns:xlink="http://www.w3.org/1999/xlink" x="0px" y="0px"
	 viewBox="-143 145 512 512" style="enable-background:new -143 145 512 512;" xml:space="preserve">
<style type="text/css">
	.st0{fill:#FFFFFF;}
</style>
<g>
	<g id="Cloud__x2B__Sun">
		<g>
			<path class="st0" d="M297.8,432.8c-9.2-67.9-53.7-117.5-124.2-117.5c-59,0-91.7,34.7-111.8,88.7c-7.4-1.8-14.9-2.6-22.5-2.6
				c-52.7,0-95.5,44.8-95.5,96.3c0,49.2,41.2,88.2,91.9,91.2h252.8c43.9,0,80.5-36.9,80.5-79.8C369,469.3,337.9,436.9,297.8,432.8z
				 M288.5,566H35.7c-36.6-2.1-69-32.6-69-68.4c0-37.4,34.2-70.8,72.5-70.8c9,0,17.8,1.7,26.2,5l13.9,5.5l3.7-14.1
				c13-49.3,38.6-85.1,90.6-85.1c61.1,0,96.5,48.2,99.2,107.9l0.6,13l15.8-1.1c29.5,0,56.7,22.4,56.7,51.2
				C346,537.9,318.1,566,288.5,566z M41.7,298c20,0,38.5,5.9,54.2,15.8c6.8-5,14.2-9.2,22.2-12.5C97,285,70.5,275.2,41.7,275.2
				c-68.9,0-125,55.6-125,124c0,17.9,3.9,34.9,10.9,50.4c3.8-9.5,9.1-18.2,15.4-26.1c-2-7.8-3.3-15.8-3.3-24.2
				C-60.3,343.4-14.5,298,41.7,298z M42.7,251.6c6.4,0,12.7,0.6,18.8,1.5h1.3l-20.1-39.9l-20.2,39.9h1.3
				C30,252.2,36.2,251.6,42.7,251.6z M-102.8,419.1v-1.3c-0.9-6.1-1.5-12.3-1.5-18.7c0-6.4,0.6-12.6,1.5-18.7v-1.3l-40.2,20
				L-102.8,419.1z M-79.3,316.6c3.7-5,7.7-9.8,12.2-14.3c4.5-4.5,9.4-8.4,14.4-12.2l0.9-0.9l-42.7-14.1l14.2,42.3L-79.3,316.6z"/>
		</g>
	</g>
</g>
</svg>
